<?xml version="1.0" standalone="no"?>
<!DOCTYPE svg PUBLIC "-//W3C//DTD SVG 20010904//EN"
 "http://www.w3.org/TR/2001/REC-SVG-20010904/DTD/svg10.dtd">
<svg version="1.0" xmlns="http://www.w3.org/2000/svg"
 width="1520.000000pt" height="1520.000000pt" viewBox="0 0 1520.000000 1520.000000"
 preserveAspectRatio="xMidYMid meet">
<metadata>
Created by potrace 1.14, written by Peter Selinger 2001-2017
</metadata>
<g transform="translate(0.000000,1520.000000) scale(0.100000,-0.100000)"
fill="#000000" stroke="none">
<path d="M7580 12535 c-7 -8 -16 -13 -20 -10 -5 3 -10 2 -12 -2 -6 -15 -105
-63 -113 -55 -5 4 -5 1 -1 -5 4 -8 1 -13 -8 -13 -8 0 -22 -7 -30 -16 -12 -12
-16 -12 -16 -2 0 8 -5 6 -11 -5 -6 -9 -14 -15 -20 -12 -5 4 -9 1 -9 -4 0 -6
-6 -10 -12 -8 -7 1 -12 -4 -10 -10 1 -7 -1 -12 -5 -11 -10 3 -57 -13 -63 -21
-3 -3 -16 -12 -29 -19 -17 -10 -21 -10 -16 -1 5 8 4 10 -3 5 -7 -4 -12 -14
-12 -22 0 -8 -4 -12 -10 -9 -5 3 -20 0 -32 -7 -13 -7 -26 -11 -30 -10 -5 1 -8
-2 -8 -7 0 -5 -11 -12 -25 -15 -16 -4 -23 -11 -19 -18 4 -6 3 -8 -3 -5 -6 4
-23 -3 -39 -15 -15 -13 -24 -16 -19 -8 5 8 -8 2 -30 -14 -21 -16 -35 -23 -30
-15 5 8 -1 5 -13 -5 -12 -11 -22 -16 -22 -12 0 4 -7 0 -16 -8 -8 -9 -22 -16
-30 -16 -8 0 -14 -5 -14 -11 0 -6 -7 -9 -15 -5 -9 3 -15 0 -15 -9 0 -9 -6 -12
-15 -9 -8 4 -15 1 -15 -5 0 -6 -8 -11 -19 -11 -10 0 -24 -7 -31 -15 -7 -8 -19
-15 -26 -15 -8 0 -14 -4 -14 -10 0 -5 -3 -9 -7 -8 -11 2 -66 -21 -73 -30 -3
-4 -24 -16 -47 -26 -24 -11 -43 -24 -43 -29 0 -6 -3 -7 -7 -4 -3 4 -12 2 -20
-4 -7 -6 -13 -8 -13 -3 0 5 -4 5 -8 -1 -6 -9 -80 -51 -139 -79 -13 -6 -23 -15
-23 -19 0 -5 -4 -6 -9 -2 -6 3 -20 -5 -32 -17 -12 -13 -18 -17 -14 -10 6 11 3
12 -14 2 -12 -6 -19 -15 -16 -20 3 -6 -1 -7 -10 -4 -8 4 -22 1 -30 -6 -21 -17
-145 -80 -145 -73 0 3 -9 -4 -20 -17 -11 -13 -20 -20 -20 -16 0 3 -15 -1 -32
-11 -18 -9 -37 -16 -42 -15 -5 2 -5 -5 -2 -15 4 -9 4 -14 0 -10 -4 4 -18 0
-31 -8 -13 -9 -23 -12 -23 -8 0 4 -7 -2 -16 -13 -8 -10 -13 -13 -9 -7 4 9 1
11 -9 7 -9 -3 -13 -10 -10 -15 3 -5 -4 -9 -15 -9 -12 0 -21 -5 -21 -10 0 -6
-3 -9 -7 -8 -11 2 -67 -25 -75 -37 -4 -5 -8 -6 -8 -1 0 5 -9 1 -20 -9 -11 -10
-20 -14 -20 -9 0 5 -7 1 -14 -9 -8 -10 -16 -18 -18 -18 -15 2 -47 -13 -42 -20
3 -5 -2 -6 -10 -3 -9 3 -16 1 -16 -6 0 -6 -5 -8 -10 -5 -6 3 -13 0 -16 -9 -3
-8 -12 -12 -20 -9 -8 3 -14 0 -14 -6 0 -6 -7 -8 -15 -4 -10 3 -15 0 -13 -8 2
-7 -2 -13 -8 -14 -18 0 -94 -40 -94 -48 0 -5 -4 -6 -9 -3 -5 3 -14 -1 -21 -9
-7 -8 -21 -15 -32 -15 -15 0 -18 -5 -14 -16 5 -14 4 -15 -8 -5 -8 7 -16 8 -18
4 -1 -4 -30 -21 -63 -38 -33 -16 -63 -34 -67 -40 -4 -5 -8 -6 -8 -2 0 5 -13
-1 -30 -13 -16 -12 -30 -18 -30 -15 0 4 -7 -1 -16 -9 -8 -9 -24 -16 -35 -16
-11 0 -18 -3 -15 -8 2 -4 -7 -12 -20 -19 -18 -8 -23 -8 -18 0 3 7 -2 3 -10 -7
-9 -11 -16 -16 -16 -12 0 4 -13 -2 -29 -13 -16 -12 -37 -21 -46 -21 -9 0 -13
-4 -10 -10 3 -5 -3 -10 -14 -10 -12 0 -21 -5 -21 -10 0 -6 -3 -9 -7 -8 -5 1
-18 -3 -29 -10 -12 -6 -25 -8 -29 -4 -5 4 -6 0 -2 -9 4 -13 1 -16 -14 -12 -11
3 -19 0 -19 -6 0 -7 -5 -9 -10 -6 -6 3 -13 0 -16 -9 -3 -8 -14 -13 -25 -11
-11 2 -17 0 -14 -6 4 -5 -1 -9 -9 -9 -9 0 -16 -5 -16 -11 0 -5 -4 -8 -9 -4 -5
3 -16 -1 -24 -9 -8 -8 -17 -12 -21 -9 -3 4 -6 1 -6 -5 0 -7 -3 -12 -7 -11 -19
3 -52 -14 -46 -24 4 -6 0 -8 -10 -4 -10 3 -17 3 -17 -1 0 -5 -16 -14 -35 -22
-19 -8 -35 -17 -35 -22 0 -4 -3 -7 -7 -7 -13 3 -73 -22 -73 -30 0 -4 -16 -13
-35 -20 -19 -7 -33 -17 -30 -22 3 -5 0 -6 -8 -3 -8 3 -18 0 -22 -5 -3 -6 -11
-9 -16 -6 -5 4 -9 2 -9 -3 0 -4 -16 -14 -35 -22 -19 -8 -35 -18 -35 -22 0 -5
-4 -6 -10 -3 -5 3 -10 1 -10 -5 0 -6 -5 -8 -10 -5 -6 3 -13 0 -16 -9 -3 -9
-12 -12 -22 -9 -11 5 -14 2 -9 -10 3 -9 2 -19 -4 -22 -5 -4 -8 -1 -7 7 2 7 -7
14 -20 16 -12 2 -20 7 -18 11 3 4 -4 7 -14 7 -10 0 -16 -5 -13 -11 4 -5 -6 1
-20 14 -15 14 -27 21 -27 17 0 -5 -6 -4 -12 1 -7 5 -25 9 -40 8 -15 0 -25 2
-22 6 2 4 -3 12 -11 19 -13 11 -14 10 -9 -4 6 -15 2 -15 -27 3 -40 25 -56 27
-39 6 16 -19 3 -20 -15 -1 -8 7 -11 17 -7 21 4 5 -1 5 -11 2 -11 -4 -20 -1
-24 8 -5 13 -7 13 -20 -2 -8 -10 -12 -12 -8 -5 3 6 1 12 -5 12 -6 0 -9 4 -6 9
4 5 -4 7 -16 3 -15 -4 -19 -2 -13 7 6 10 3 11 -13 2 -25 -14 -43 -14 -22 -1
12 8 11 10 -7 10 -13 0 -23 6 -23 13 0 8 -4 7 -10 -3 -9 -13 -14 -8 -12 11 1
4 -8 5 -18 2 -13 -3 -20 0 -20 8 0 11 -2 11 -10 -1 -5 -8 -10 -10 -10 -4 0 17
-36 24 -50 10 -8 -8 -10 -7 -5 7 8 19 -10 24 -18 5 -3 -8 -6 -6 -6 5 -1 15 -4
16 -23 6 -21 -11 -22 -11 -9 4 12 15 11 17 -13 17 -14 0 -26 5 -26 12 0 9 -3
9 -11 1 -9 -9 -16 -8 -27 4 -14 14 -17 13 -30 -3 -13 -18 -14 -18 -8 3 5 17 3
21 -11 18 -10 -1 -24 2 -32 8 -7 6 -25 13 -39 15 -15 2 -30 8 -33 14 -4 7 -9
5 -12 -3 -4 -11 -6 -11 -6 -1 -1 7 -5 10 -11 7 -5 -3 -10 2 -10 12 0 10 -4 14
-8 8 -9 -13 -35 -19 -28 -6 3 5 -1 11 -9 15 -10 3 -15 -1 -15 -12 -1 -13 -4
-11 -15 8 -8 14 -14 19 -15 12 0 -10 -4 -10 -16 2 -19 19 -28 21 -19 4 4 -7 0
-5 -8 5 -11 14 -16 15 -20 5 -4 -10 -6 -10 -6 0 -1 6 -10 12 -22 12 -13 0 -18
4 -13 12 4 7 3 8 -5 4 -6 -4 -19 -2 -28 6 -12 9 -15 9 -9 1 5 -9 2 -11 -8 -7
-9 3 -14 10 -11 14 3 4 -1 8 -8 7 -34 -1 -58 4 -53 11 3 5 -10 8 -29 7 -23 0
-35 4 -35 12 0 7 -5 13 -11 13 -5 0 -7 -6 -4 -12 4 -7 -4 -2 -16 12 -14 16
-20 19 -16 8 3 -10 1 -20 -5 -24 -6 -4 -8 -3 -5 3 10 16 -20 36 -44 30 -14 -4
-19 -2 -16 7 5 13 -7 16 -51 16 -14 0 -20 4 -17 11 4 6 1 10 -6 8 -33 -4 -50
1 -43 14 5 7 0 6 -11 -3 -17 -13 -18 -13 -13 0 4 12 -1 15 -21 14 -14 0 -29 4
-33 10 -6 8 -11 6 -18 -4 -8 -12 -10 -10 -10 9 0 24 0 24 -16 5 -8 -10 -13
-14 -10 -8 8 17 -11 29 -74 48 -30 10 -64 21 -75 26 -19 8 -121 42 -137 46 -5
1 -10 3 -13 4 -3 1 -8 3 -12 5 -5 1 -15 4 -23 8 -19 7 -183 61 -190 62 -7 1
-321 105 -340 112 -8 4 -18 7 -22 8 -5 2 -10 4 -13 5 -3 1 -8 3 -12 4 -5 1
-12 4 -18 7 -8 5 -41 15 -75 24 -17 4 -269 88 -285 95 -11 5 -81 28 -155 52
-74 23 -137 45 -140 48 -3 3 -9 5 -15 5 -9 0 -100 29 -135 42 -8 4 -17 7 -20
8 -38 9 -128 41 -137 48 -7 5 -13 7 -13 3 0 -3 -16 1 -36 9 -20 8 -45 15 -55
15 -11 0 -19 5 -19 12 0 6 -3 8 -7 5 -3 -4 -12 -2 -20 4 -7 6 -13 8 -13 4 0
-4 -7 -2 -15 5 -8 7 -15 10 -15 6 0 -3 -16 0 -35 8 l-35 15 16 -24 c9 -13 12
-30 8 -36 -4 -8 -3 -9 4 -5 7 4 12 1 12 -9 0 -9 4 -14 9 -10 5 3 11 -5 13 -17
2 -13 9 -22 16 -20 6 1 12 -1 11 -5 -2 -16 14 -53 22 -53 5 0 9 -7 9 -16 0 -8
5 -12 10 -9 6 3 10 -3 10 -14 0 -12 3 -21 8 -21 10 0 58 -79 54 -91 -1 -5 5
-9 14 -9 8 0 12 -4 9 -10 -3 -5 -1 -10 4 -10 6 0 11 -9 11 -20 0 -11 6 -19 13
-18 6 2 11 -3 9 -9 -1 -7 2 -13 8 -13 5 0 10 -7 10 -15 0 -8 4 -15 10 -15 5 0
6 -7 3 -17 -4 -11 -3 -14 6 -9 8 5 14 1 18 -13 3 -12 9 -21 14 -21 5 0 9 -7 9
-15 0 -8 5 -15 10 -15 6 0 10 -4 10 -9 0 -22 55 -91 68 -86 13 5 13 3 1 -12
-12 -15 -12 -16 2 -11 13 5 16 2 12 -13 -3 -10 0 -19 6 -19 6 0 11 -7 11 -16
0 -13 3 -14 14 -5 11 9 12 6 8 -14 -2 -15 0 -25 7 -25 7 0 10 -4 7 -9 -3 -5 2
-8 11 -7 9 0 18 -6 20 -14 4 -12 3 -12 -5 -1 -7 10 -11 10 -17 1 -4 -7 1 -13
14 -17 12 -3 21 -13 21 -25 0 -15 5 -18 23 -13 16 5 18 4 8 -3 -20 -14 -6 -43
16 -36 15 5 15 4 3 -4 -12 -9 -11 -14 8 -30 12 -10 18 -23 14 -27 -4 -5 2 -5
12 -1 16 5 17 4 6 -9 -7 -8 -8 -15 -4 -15 5 0 14 -10 19 -22 6 -13 18 -22 29
-21 13 1 15 -2 7 -10 -17 -17 -13 -27 7 -20 14 6 15 4 5 -8 -15 -19 0 -39 31
-40 21 0 21 0 1 -9 -16 -7 -17 -9 -3 -9 9 -1 18 -11 20 -23 2 -13 9 -22 16
-20 6 1 11 -1 10 -5 -2 -11 13 -45 26 -60 6 -7 17 -19 24 -28 7 -8 17 -13 21
-11 4 3 8 -1 8 -9 0 -11 -4 -12 -14 -3 -11 8 -12 7 -7 -6 3 -9 12 -16 20 -16
8 0 14 -9 14 -19 0 -10 7 -22 16 -25 8 -3 13 -10 9 -15 -3 -5 4 -13 15 -16 18
-6 19 -9 8 -23 -10 -12 -10 -14 0 -8 7 4 12 1 12 -8 0 -9 5 -16 10 -16 6 0 10
-6 10 -14 0 -18 40 -47 53 -39 6 3 7 1 3 -6 -4 -6 -12 -9 -17 -6 -5 3 -6 -1
-3 -9 3 -9 14 -16 23 -16 14 0 14 -2 1 -10 -13 -8 -12 -10 3 -10 11 0 17 -6
15 -17 -2 -10 3 -17 10 -16 6 2 12 -6 12 -18 0 -14 5 -19 15 -16 8 4 17 1 21
-5 4 -7 3 -8 -4 -4 -7 4 -12 1 -12 -9 0 -9 5 -13 10 -10 6 3 10 -3 10 -15 0
-12 5 -18 10 -15 6 3 10 -1 10 -9 0 -9 8 -16 18 -17 14 0 14 -2 -3 -9 -14 -6
-16 -9 -5 -10 8 -2 18 -2 22 -1 4 0 5 -8 3 -19 -2 -11 1 -23 7 -26 6 -4 8 -2
4 4 -3 6 -2 14 4 17 6 4 10 3 9 -2 -1 -4 -1 -21 0 -38 1 -23 3 -27 11 -15 8
13 10 12 10 -2 0 -10 5 -18 10 -18 6 0 10 -12 10 -27 0 -14 3 -23 7 -20 10 11
33 -13 33 -35 0 -10 5 -16 10 -13 6 3 10 -3 10 -14 0 -11 14 -29 30 -41 24
-17 28 -25 20 -36 -10 -10 -7 -12 10 -9 18 3 20 2 10 -10 -10 -12 -10 -15 0
-15 7 0 10 -7 7 -14 -4 -10 -1 -13 9 -9 9 3 14 -2 14 -17 0 -17 4 -20 23 -16
12 3 16 3 10 0 -19 -9 -16 -34 5 -34 14 0 15 -2 2 -10 -13 -8 -12 -10 3 -10 9
0 17 -7 17 -15 0 -8 8 -15 18 -16 14 0 14 -2 -3 -8 -20 -8 -20 -8 0 -14 19 -7
52 -63 47 -81 -2 -5 6 -6 17 -3 11 3 20 2 19 -2 0 -3 0 -19 1 -35 1 -23 4 -26
14 -17 19 15 30 1 14 -17 -9 -13 -9 -14 1 -8 8 5 12 0 12 -14 0 -12 4 -18 11
-15 6 4 9 0 7 -11 -2 -11 2 -18 10 -17 6 2 12 -6 12 -18 0 -15 4 -19 16 -15
14 5 15 4 4 -9 -7 -9 -10 -18 -6 -22 3 -3 6 -1 6 5 0 21 16 13 17 -8 1 -11 9
-27 17 -36 9 -8 16 -19 16 -23 0 -4 9 -18 20 -31 11 -12 17 -26 14 -31 -3 -5
2 -6 11 -3 9 4 15 3 14 -2 -4 -17 21 -64 36 -70 8 -4 15 -15 15 -25 0 -10 4
-19 9 -19 5 0 12 -9 16 -19 4 -15 12 -18 33 -15 14 3 30 10 33 16 4 6 12 7 19
3 9 -5 11 -4 6 3 -7 11 6 17 27 13 5 -1 6 3 2 9 -6 9 16 15 39 11 5 -1 6 5 3
13 -4 9 -2 18 4 21 5 4 9 3 8 -2 -4 -25 3 -24 21 2 11 17 20 25 20 19 0 -5 -6
-16 -12 -23 -11 -10 -10 -11 2 -6 9 3 24 18 34 33 10 15 15 19 12 10 -3 -10
-1 -18 4 -18 6 0 10 5 10 10 0 6 6 10 13 9 6 -2 29 7 49 20 20 12 39 21 42 19
3 -2 11 6 19 16 8 11 19 16 25 12 7 -4 12 -2 12 4 0 6 5 8 12 4 8 -5 9 -2 5
10 -6 14 -4 15 16 5 21 -12 21 -11 7 7 -8 10 -10 16 -5 11 4 -4 19 3 33 15 13
13 22 19 20 13 -2 -5 2 -10 7 -10 5 0 9 3 8 6 -1 4 7 4 19 1 16 -4 19 -2 13 8
-6 10 -3 12 14 7 15 -3 26 1 33 13 7 10 18 16 27 12 9 -3 13 -1 8 3 -7 9 54
36 85 38 9 1 15 3 12 6 -5 5 345 183 364 184 6 0 12 4 12 7 0 4 15 13 33 21
17 7 34 15 37 18 3 3 38 22 78 41 40 19 78 40 84 47 6 7 15 10 21 6 7 -4 8 0
3 12 -5 15 -4 16 9 5 14 -12 19 -7 16 13 -1 5 3 6 9 2 6 -4 17 -2 24 4 8 7 19
10 26 9 7 -2 15 3 18 11 3 9 0 11 -8 6 -9 -5 -11 -4 -6 4 4 6 12 9 17 5 18
-11 59 6 59 24 0 13 2 14 9 3 7 -10 12 -8 24 10 9 12 13 27 10 32 -3 6 -1 7 5
3 6 -4 8 -13 5 -22 -4 -12 2 -11 30 5 19 11 38 17 43 13 4 -4 4 1 1 10 -4 13
-2 15 10 11 10 -4 14 -2 10 4 -5 7 0 9 13 6 11 -3 20 -1 20 5 0 9 31 23 57 26
6 1 19 9 30 18 10 9 22 18 28 20 5 2 9 7 7 11 -1 5 2 6 7 2 12 -7 94 35 100
50 2 6 12 9 22 7 9 -2 20 2 24 8 3 6 11 8 16 5 5 -4 9 2 9 12 0 15 2 16 10 3
7 -11 10 -11 10 -2 0 7 5 10 10 7 6 -3 10 1 10 9 0 9 5 16 10 16 6 0 10 -5 10
-11 0 -8 4 -8 14 0 11 10 17 8 25 -6 7 -12 10 -14 11 -4 0 11 5 9 22 -5 13
-12 18 -13 13 -4 -7 13 -6 13 7 2 15 -12 47 -23 76 -24 6 -1 12 -5 12 -10 0
-4 5 -8 11 -8 5 0 7 6 4 13 -4 6 0 4 8 -5 8 -10 17 -15 20 -11 4 3 13 1 20 -5
8 -7 17 -9 20 -5 4 3 7 1 7 -6 0 -7 5 -9 10 -6 6 4 18 1 27 -7 14 -11 16 -11
8 2 -8 13 -7 13 9 0 10 -8 27 -15 39 -17 11 -2 26 -8 34 -14 10 -9 13 -8 13 2
0 11 2 11 9 1 4 -7 19 -14 32 -14 13 -1 32 -8 42 -16 9 -9 20 -12 24 -9 3 4
12 2 20 -4 7 -6 13 -8 13 -4 0 4 11 0 24 -8 18 -12 26 -13 36 -4 7 7 10 7 7 1
-7 -12 79 -38 95 -28 6 4 8 2 5 -3 -8 -12 20 -26 34 -17 5 3 9 0 9 -6 0 -7 7
-10 15 -6 8 3 15 1 15 -5 0 -6 4 -8 8 -5 5 3 21 -2 37 -10 15 -8 30 -12 33
-10 2 3 17 -1 32 -9 21 -11 30 -11 39 -2 10 9 11 8 6 -5 -5 -12 -2 -16 12 -14
10 2 30 -3 45 -10 15 -8 35 -11 44 -7 12 4 15 3 10 -5 -5 -8 1 -12 18 -12 14
0 26 -4 26 -9 0 -6 9 -8 20 -6 11 2 20 -1 20 -7 0 -6 3 -9 6 -5 3 3 24 -1 46
-9 22 -7 44 -11 49 -8 5 3 9 1 9 -4 0 -10 51 -25 87 -26 12 0 20 -3 17 -7 -2
-4 16 -13 41 -21 24 -8 42 -11 39 -6 -6 9 35 -11 46 -22 3 -3 19 -7 35 -9 17
-1 36 -8 43 -13 6 -6 12 -7 12 -3 0 4 6 2 13 -4 8 -6 18 -7 22 -3 5 4 5 1 1
-5 -4 -7 -2 -13 3 -13 6 0 11 -14 11 -31 0 -16 4 -28 9 -25 5 3 9 0 8 -7 -1
-43 4 -67 14 -61 8 4 8 0 0 -15 -8 -14 -8 -21 -1 -21 5 0 10 -13 10 -28 0 -15
4 -32 10 -38 5 -5 10 -24 12 -42 1 -17 5 -32 8 -32 3 0 7 -12 8 -26 1 -15 8
-34 15 -42 10 -13 9 -14 -3 -7 -12 7 -13 6 -4 -6 6 -8 14 -27 18 -44 3 -16 9
-41 12 -55 3 -13 11 -28 17 -32 9 -6 9 -8 -1 -8 -8 0 -10 -5 -5 -12 8 -14 11
-28 15 -65 1 -13 6 -23 11 -23 5 0 7 -7 4 -15 -4 -8 -2 -17 4 -20 5 -4 7 -11
4 -16 -4 -5 -1 -9 4 -9 6 0 11 -5 11 -11 0 -5 -5 -7 -11 -4 -11 7 -10 5 24
-63 9 -18 12 -30 7 -27 -16 10 -11 -12 6 -29 12 -12 12 -16 2 -16 -9 0 -9 -3
-2 -8 6 -4 10 -15 8 -24 -1 -10 2 -20 7 -24 5 -3 7 -10 4 -15 -4 -5 -2 -9 3
-9 5 0 8 -11 7 -25 -2 -14 1 -25 6 -25 6 0 8 -4 5 -9 -4 -5 0 -12 6 -14 10 -4
10 -6 0 -6 -9 -1 -8 -7 4 -26 10 -16 12 -25 5 -25 -7 0 -6 -8 4 -23 8 -13 12
-26 9 -30 -3 -3 -2 -12 2 -19 5 -7 10 -24 12 -38 2 -14 7 -27 13 -28 5 -2 7
-8 3 -13 -5 -9 11 -69 28 -103 7 -14 6 -16 -4 -11 -10 6 -11 5 0 -6 6 -7 12
-25 12 -40 0 -15 4 -30 10 -34 5 -3 7 -12 3 -20 -3 -8 -1 -15 4 -15 5 0 9 -10
10 -22 1 -31 10 -63 22 -86 6 -11 8 -22 4 -25 -3 -4 0 -13 7 -22 7 -8 9 -15 5
-15 -4 0 -1 -8 6 -17 12 -15 12 -16 -1 -8 -13 8 -13 6 -2 -8 8 -9 11 -21 8
-26 -4 -5 -1 -13 5 -16 5 -4 8 -13 5 -21 -3 -8 -1 -14 4 -14 6 0 9 -3 9 -7 -4
-23 2 -53 9 -49 5 3 8 -5 7 -17 -1 -12 4 -37 11 -54 7 -19 9 -33 3 -33 -5 0
-2 -11 7 -25 9 -14 14 -28 10 -32 -3 -3 -1 -12 4 -18 6 -7 12 -27 13 -44 1
-17 6 -31 11 -31 4 0 6 -9 3 -20 -3 -11 -1 -23 4 -26 5 -3 7 -9 4 -14 -3 -5 0
-12 6 -15 5 -4 8 -13 5 -20 -3 -8 2 -19 10 -26 11 -9 12 -15 3 -25 -8 -10 -8
-14 0 -14 6 0 11 -16 11 -36 0 -19 4 -33 9 -30 4 3 8 -5 8 -17 1 -40 3 -48 12
-43 4 3 6 -6 3 -21 -4 -20 -2 -24 9 -18 12 7 12 6 1 -7 -9 -11 -10 -18 -2 -23
5 -3 10 -17 10 -31 0 -13 4 -24 9 -24 4 0 7 -11 6 -25 -2 -14 1 -25 6 -25 6 0
7 -5 4 -10 -4 -6 0 -24 9 -40 9 -19 10 -28 3 -23 -8 4 -8 1 1 -9 7 -9 12 -20
10 -24 -1 -5 4 -20 11 -33 10 -18 10 -22 0 -16 -8 6 -10 4 -3 -6 4 -8 10 -20
11 -27 7 -30 12 -47 13 -47 2 0 10 -36 12 -57 1 -10 6 -18 10 -18 4 0 5 -9 3
-20 -2 -11 1 -20 6 -20 6 0 8 -4 5 -9 -4 -5 0 -12 6 -14 9 -4 9 -6 1 -6 -8 -1
-5 -18 8 -53 11 -29 17 -58 15 -65 -3 -7 -1 -15 4 -18 4 -3 7 -16 5 -30 -1
-17 3 -25 13 -25 12 0 12 -2 1 -17 -12 -14 -12 -16 1 -11 12 5 16 -1 14 -22
-1 -16 4 -40 12 -55 9 -18 10 -24 1 -19 -7 4 -3 -2 7 -14 13 -15 15 -22 6 -22
-9 0 -10 -3 -1 -14 6 -8 11 -18 10 -22 -3 -19 1 -35 9 -30 5 3 6 -8 4 -25 -3
-18 0 -29 8 -29 7 0 9 -8 5 -20 -3 -11 -3 -20 2 -20 5 0 9 -8 10 -17 0 -10 4
-29 8 -43 4 -14 7 -33 7 -42 -1 -10 3 -18 9 -18 5 0 9 -14 9 -31 0 -21 4 -28
13 -23 9 6 9 4 -1 -8 -9 -11 -10 -18 -2 -23 5 -3 10 -17 10 -31 0 -18 4 -23
13 -18 8 5 8 2 -2 -9 -7 -9 -9 -17 -4 -17 10 0 12 -8 15 -55 1 -14 6 -25 10
-25 4 0 8 -10 8 -23 0 -13 6 -29 13 -36 10 -11 9 -12 -3 -6 -13 8 -13 7 -1 -8
8 -10 11 -20 8 -24 -4 -3 1 -12 11 -20 9 -8 11 -12 5 -8 -16 8 -16 6 2 -44 8
-22 12 -41 8 -41 -3 0 0 -7 7 -15 7 -8 10 -15 7 -15 -3 0 0 -20 7 -45 8 -25
12 -45 8 -45 -3 0 2 -8 11 -18 13 -14 14 -21 5 -30 -9 -9 -7 -13 6 -18 14 -5
15 -9 4 -15 -9 -6 -9 -9 -1 -9 6 0 10 -9 8 -20 -2 -11 0 -20 4 -20 4 0 8 -6 9
-12 1 -11 3 -23 11 -71 0 -5 5 -6 9 -3 4 2 7 -13 6 -35 -1 -21 3 -39 7 -39 5
0 9 -10 9 -23 0 -13 6 -29 13 -36 6 -8 7 -11 1 -8 -6 3 -11 0 -11 -8 0 -8 4
-12 9 -9 4 3 8 -9 8 -25 0 -17 4 -31 8 -31 4 0 9 -11 10 -25 5 -55 7 -65 12
-65 4 0 7 -6 8 -12 3 -37 9 -69 15 -75 4 -3 7 -17 7 -30 0 -16 4 -22 13 -17 9
5 9 4 1 -5 -9 -10 -8 -20 2 -40 8 -15 16 -45 19 -66 2 -21 10 -42 17 -47 10
-6 9 -8 -2 -8 -12 0 -12 -2 -2 -9 8 -4 13 -14 12 -22 -4 -24 0 -40 8 -36 4 3
8 -10 8 -28 1 -19 5 -42 9 -52 9 -20 11 -26 18 -63 3 -14 9 -40 13 -57 3 -18
10 -33 15 -33 5 0 6 -7 3 -15 -4 -8 2 -27 11 -41 10 -15 12 -23 4 -19 -9 6
-10 3 -5 -11 9 -21 18 -62 19 -81 0 -7 5 -9 10 -6 5 3 7 0 5 -8 -3 -8 1 -29 8
-47 14 -36 14 -34 14 -63 0 -13 4 -18 13 -13 8 5 8 2 -2 -9 -7 -9 -9 -17 -4
-17 5 0 10 -12 11 -27 1 -15 8 -30 15 -35 9 -6 9 -8 -1 -8 -8 0 -10 -5 -6 -12
4 -7 9 -26 11 -43 2 -16 6 -37 10 -45 3 -8 8 -26 10 -40 2 -13 7 -27 11 -30 7
-5 8 -9 10 -56 2 -17 6 -23 15 -18 8 5 8 2 -2 -9 -7 -9 -9 -17 -4 -17 5 0 10
-6 11 -12 4 -48 25 -107 35 -101 9 5 9 3 1 -8 -8 -10 -9 -21 -1 -39 11 -28 17
-56 18 -83 0 -9 5 -17 11 -17 6 0 8 -3 5 -6 -3 -4 -2 -15 3 -25 7 -12 6 -19
-3 -22 -9 -4 -9 -6 1 -6 6 -1 12 -10 12 -22 0 -11 3 -18 8 -16 4 3 8 -16 9
-41 1 -25 8 -49 15 -54 7 -4 10 -8 7 -8 -6 0 -3 -18 16 -90 2 -8 4 -23 4 -33
1 -10 5 -16 9 -13 5 3 8 -5 7 -17 -1 -12 4 -39 12 -61 7 -21 13 -49 13 -62 0
-13 5 -24 11 -24 5 0 8 -4 4 -9 -3 -5 -1 -12 5 -16 6 -4 8 -11 4 -16 -3 -5 0
-24 6 -43 15 -46 22 -78 22 -98 -1 -10 3 -20 8 -23 5 -3 12 -28 16 -55 4 -28
10 -50 13 -50 4 0 7 -9 8 -20 3 -32 45 -194 55 -210 7 -11 8 -10 3 5 -5 16 -4
18 6 8 17 -17 35 -16 37 2 1 8 3 22 4 30 1 8 5 15 10 15 4 0 8 10 8 23 0 12 7
43 15 70 8 26 12 47 9 47 -3 0 0 8 5 18 6 11 12 30 15 43 3 13 10 44 17 69 6
25 12 52 14 60 2 8 18 67 35 130 17 63 32 124 34 135 2 11 5 20 6 20 1 0 4 9
5 20 2 11 8 35 14 53 5 17 7 32 4 32 -3 0 0 7 7 15 7 8 10 15 6 15 -3 0 -1 11
4 25 5 14 12 36 14 48 5 23 12 51 22 90 3 12 6 28 6 35 1 6 5 12 9 12 4 0 6 6
5 13 -1 12 21 110 31 137 5 13 10 31 17 65 1 6 5 16 9 23 5 6 6 12 3 12 -2 0
0 15 5 33 5 17 12 46 15 62 3 17 9 32 15 33 5 2 7 7 5 11 -3 4 22 117 55 251
67 271 71 290 72 308 0 6 4 12 8 12 3 0 10 21 14 48 5 26 10 52 11 57 12 40
36 133 38 145 1 9 5 20 8 25 3 6 11 37 18 70 7 33 15 64 18 70 3 5 7 16 8 25
0 8 7 35 14 60 6 25 14 53 16 62 8 36 13 54 29 113 9 33 18 69 21 80 2 11 8
38 14 60 6 22 13 49 16 60 2 11 13 54 24 95 12 41 22 82 24 90 2 8 30 114 61
235 31 121 58 227 61 235 2 8 15 60 29 115 14 55 29 111 32 125 10 50 11 55
13 55 1 0 3 7 5 15 39 155 58 228 62 240 4 8 7 22 8 30 0 8 4 25 8 37 4 12 10
30 12 40 2 10 8 33 14 51 5 17 8 32 5 32 -3 0 0 8 5 18 5 9 11 31 14 47 3 17
12 51 20 77 8 26 12 49 9 52 -3 4 0 6 6 6 6 0 9 10 7 22 -3 12 0 27 6 34 6 7
8 18 4 24 -3 5 -1 10 6 10 7 0 10 3 7 6 -4 3 3 36 13 72 11 37 22 82 24 100 3
18 10 42 15 53 6 10 8 19 5 19 -3 0 -1 8 4 18 5 9 11 31 14 47 2 17 10 50 17
75 7 25 14 52 15 60 2 8 4 15 5 15 2 0 5 14 14 53 3 12 7 25 9 30 3 4 8 23 11
42 3 19 16 74 30 123 13 48 22 87 19 87 -3 0 0 6 6 13 6 8 13 29 15 48 3 19 6
35 7 37 1 1 3 7 4 12 1 6 4 11 5 13 1 1 4 11 5 22 2 21 32 129 42 155 3 8 7
26 8 40 1 14 5 32 8 40 7 18 54 194 61 230 3 14 19 77 36 140 17 63 32 124 35
135 2 11 4 20 5 20 1 0 3 7 5 15 1 8 8 35 15 60 7 25 13 52 15 60 2 8 10 40
19 71 9 31 19 66 21 78 2 13 7 31 10 41 3 10 7 27 9 37 2 10 12 47 21 83 9 36
19 73 20 83 2 9 6 21 9 25 3 5 8 24 11 42 3 19 15 68 27 110 11 41 21 82 23
90 2 8 4 17 6 20 1 3 3 10 4 15 19 85 22 88 130 119 33 10 76 24 95 31 19 7
38 13 43 14 4 1 9 2 12 2 3 1 10 3 15 4 6 1 11 3 13 4 1 2 13 4 26 7 14 2 30
9 38 15 7 6 13 9 13 5 0 -3 12 -1 28 5 15 6 34 12 42 14 8 2 47 13 85 26 39
13 72 23 75 24 3 0 11 4 18 8 6 5 16 6 21 2 5 -3 13 0 16 6 4 5 13 8 20 5 8
-3 15 -1 17 5 2 5 12 11 23 13 46 9 81 19 90 26 10 7 72 21 89 19 5 0 12 4 16
11 4 6 18 12 31 14 13 1 34 8 47 15 12 6 22 9 22 7 0 -3 19 2 43 10 23 9 49
17 57 19 8 2 47 14 85 26 39 13 72 23 75 24 3 0 39 12 80 25 41 13 80 24 87
25 6 0 15 4 19 8 4 4 17 7 29 7 12 0 25 3 29 7 9 10 78 33 99 33 9 0 17 -5 17
-11 0 -8 5 -7 15 1 13 11 14 10 9 -4 -5 -12 -2 -15 12 -9 13 5 15 3 9 -8 -8
-12 -6 -12 8 0 15 12 17 12 11 -2 -4 -12 -1 -15 15 -12 14 2 26 -3 34 -16 6
-10 22 -19 35 -19 13 0 21 -4 18 -9 -3 -5 1 -12 10 -15 8 -3 12 -2 9 3 -3 5
-1 13 5 16 6 4 10 3 9 -2 -5 -27 1 -35 16 -23 13 11 14 10 10 -1 -5 -13 50
-47 68 -41 4 1 7 -3 7 -9 0 -5 5 -7 10 -4 6 3 10 1 10 -6 0 -8 4 -8 16 1 8 8
14 9 13 4 -1 -5 -1 -16 1 -24 1 -11 4 -9 10 5 7 17 9 17 9 3 1 -10 8 -18 16
-18 8 0 15 -6 15 -12 0 -9 4 -8 10 2 8 13 10 12 10 -3 0 -15 3 -16 23 -6 19
11 20 10 9 -3 -10 -13 -10 -17 3 -22 11 -4 14 -2 10 7 -4 6 0 5 7 -5 8 -9 23
-18 33 -20 11 -1 28 -12 38 -23 10 -11 15 -13 11 -5 -4 8 4 5 18 -8 19 -17 27
-20 31 -10 4 10 6 10 6 1 1 -7 10 -13 22 -13 11 0 18 -4 15 -8 -2 -4 5 -14 17
-22 20 -12 21 -12 8 4 -12 14 -12 16 2 10 8 -3 19 -13 22 -22 6 -15 8 -15 15
3 8 20 9 20 9 -1 1 -19 64 -61 85 -55 4 1 15 -6 23 -16 8 -10 12 -12 8 -5 -3
6 -2 12 3 12 6 0 13 -8 17 -17 7 -17 8 -16 15 2 8 20 9 20 9 -1 1 -12 12 -26
27 -32 14 -7 23 -8 20 -4 -3 5 1 9 8 9 8 0 12 -7 8 -15 -3 -10 -1 -13 6 -8 7
4 12 3 12 -2 0 -6 7 -13 16 -16 8 -3 12 -2 9 4 -3 6 -1 10 4 10 6 0 11 -6 11
-14 0 -15 27 -30 49 -27 7 1 10 -2 6 -8 -4 -7 0 -8 11 -4 12 4 15 3 10 -5 -4
-7 -3 -12 3 -12 5 0 12 6 14 13 3 7 6 4 6 -7 1 -12 6 -16 16 -12 8 3 15 1 15
-4 0 -5 36 -27 80 -49 44 -22 78 -35 75 -30 -4 5 -1 9 4 9 6 0 11 -7 11 -16 0
-8 5 -12 10 -9 6 3 10 2 10 -3 0 -6 7 -13 16 -16 15 -6 15 -4 4 11 -8 10 -1 5
15 -10 22 -24 33 -28 59 -23 24 4 27 3 13 -5 -9 -6 -15 -15 -11 -20 3 -6 12
-5 22 3 12 10 14 10 8 1 -4 -8 -1 -13 9 -13 9 0 23 -7 32 -15 8 -8 19 -13 24
-10 5 4 9 1 9 -6 0 -9 3 -9 14 0 11 9 14 8 12 -5 0 -9 5 -19 13 -22 9 -3 11 0
7 9 -4 8 0 5 8 -5 9 -11 16 -16 16 -10 0 5 5 1 11 -10 9 -15 13 -16 20 -5 7
11 10 9 15 -8 4 -13 11 -23 16 -23 5 0 6 5 2 11 -5 8 -1 8 14 0 12 -6 24 -16
27 -21 4 -6 11 -8 16 -5 5 4 9 1 9 -4 0 -6 7 -11 16 -11 8 0 13 -4 10 -8 -2
-4 5 -9 16 -9 12 -1 24 -7 28 -14 4 -6 13 -8 19 -5 6 4 11 2 11 -3 0 -6 6 -10
13 -8 6 1 11 -4 9 -11 -1 -8 2 -11 7 -8 5 4 12 2 16 -4 4 -6 10 -8 15 -5 4 3
13 -2 20 -10 6 -7 17 -12 24 -9 8 3 20 -1 27 -8 8 -8 22 -17 32 -21 9 -3 17
-12 17 -19 0 -9 3 -8 10 2 5 8 10 10 10 4 0 -18 29 -12 36 8 3 10 10 18 15 18
5 0 9 7 9 15 0 8 5 15 10 15 6 0 10 6 10 14 0 8 3 16 8 18 4 2 34 44 67 93 33
50 63 92 67 93 5 2 8 8 8 12 0 10 46 81 58 90 4 3 13 15 20 28 6 12 18 32 25
45 6 12 18 26 25 30 6 4 12 15 12 22 0 8 5 15 11 15 5 0 7 5 4 10 -3 6 -1 10
5 10 6 0 8 5 5 10 -3 6 -1 10 6 10 7 0 10 3 6 6 -8 8 16 33 25 27 4 -2 5 3 2
11 -4 11 0 16 10 16 19 0 21 11 4 29 -7 7 -8 12 -3 11 24 -5 35 1 35 19 0 11
5 23 12 27 7 5 8 3 3 -6 -5 -9 -4 -11 3 -6 7 4 12 14 12 22 0 9 7 22 15 31 8
8 13 19 9 24 -3 5 -2 9 3 8 20 -3 27 2 13 11 -12 8 -10 10 9 10 21 0 22 2 10
17 -10 11 -10 14 -1 9 7 -4 12 -2 12 4 0 6 5 8 13 4 7 -5 6 0 -3 11 -9 11 -10
16 -2 11 7 -4 12 -1 12 9 0 10 5 13 12 9 8 -5 9 -2 5 9 -4 10 -2 16 6 14 7 -1
11 4 10 11 -2 6 2 12 8 12 6 0 8 7 5 16 -4 11 -2 15 8 11 8 -3 17 1 20 9 4 10
1 13 -7 9 -6 -4 -4 0 7 9 10 9 15 20 10 27 -5 9 -2 10 9 6 9 -3 18 0 21 9 3 8
2 13 -2 10 -5 -3 -9 1 -9 8 0 8 6 12 13 9 6 -2 15 1 20 8 4 7 3 10 -3 6 -5 -3
-10 0 -10 7 0 9 7 12 15 8 11 -4 14 -1 9 11 -5 13 -1 17 14 17 12 0 19 5 16
13 -2 6 -10 11 -16 9 -7 -1 -9 2 -6 8 4 6 9 9 12 6 8 -8 44 14 39 23 -3 4 3
17 14 28 10 12 16 24 13 27 -4 3 2 6 11 6 12 0 16 5 12 15 -3 9 1 18 9 21 8 4
12 10 9 15 -3 5 0 9 6 9 7 0 10 6 7 13 -3 8 -1 20 5 28 8 11 8 10 4 -5 -5 -16
-4 -17 9 -6 8 7 13 15 10 19 -2 4 5 13 15 21 10 8 17 17 15 21 -3 4 6 18 20
30 13 13 25 31 25 40 0 9 7 20 16 23 13 5 14 9 4 21 -11 13 -10 14 4 9 9 -3
16 -1 16 5 0 7 9 22 20 33 15 17 17 24 8 31 -9 6 -6 7 9 4 15 -3 20 -1 16 9
-3 8 0 14 6 14 6 0 11 7 11 15 0 9 7 18 15 21 12 5 13 9 4 21 -10 11 -9 13 2
11 8 -2 13 3 11 10 -1 6 4 11 10 10 7 -2 12 5 10 14 -2 12 2 16 12 12 9 -3 17
3 22 18 4 13 19 38 35 57 15 19 26 38 23 42 -2 4 5 14 16 22 11 7 17 17 13 20
-3 4 -1 7 7 7 10 0 10 4 -1 17 -9 10 -9 14 -2 10 14 -9 36 26 25 38 -4 5 1 5
10 2 12 -4 19 1 24 16 3 12 16 33 28 46 11 13 14 20 6 16 -13 -8 -13 -6 -1 8
7 9 17 14 22 11 5 -3 9 -2 8 3 -4 16 13 43 23 37 6 -4 5 4 -2 16 -7 13 -8 20
-2 16 11 -6 26 10 27 29 1 6 6 9 12 8 6 -1 14 4 17 13 4 10 1 13 -7 9 -6 -4
-4 0 7 9 10 9 15 20 10 27 -5 9 -2 10 9 6 9 -3 18 0 21 9 4 10 2 12 -6 8 -7
-4 -8 -3 -4 4 4 7 14 12 23 12 13 0 14 2 2 17 -10 11 -10 14 -1 9 7 -4 12 -2
12 4 0 6 5 8 10 5 6 -4 10 -3 9 2 -4 16 13 43 23 37 6 -4 5 4 -2 16 -8 15 -8
20 -1 16 6 -4 15 4 21 18 5 14 12 26 15 26 4 0 3 -5 -1 -12 -5 -7 -3 -8 5 -3
7 4 11 15 8 25 -3 12 2 20 15 23 11 3 17 10 13 16 -3 6 -11 8 -17 5 -7 -4 -8
-2 -4 4 4 6 13 9 21 5 8 -3 15 0 15 7 0 6 5 8 12 4 6 -4 8 -3 5 3 -4 6 0 18 7
29 12 16 12 20 -2 30 -12 9 -12 13 -2 19 8 5 11 4 7 -2 -4 -6 2 -13 12 -16 14
-3 18 -1 14 9 -3 8 0 14 6 14 6 0 11 6 11 13 0 8 9 22 20 32 11 10 18 20 16
23 -3 2 8 15 24 28 19 16 26 31 23 43 -6 23 -30 35 -30 15 0 -7 5 -10 10 -7 6
3 7 2 4 -3 -3 -5 -26 -9 -51 -7 -27 2 -46 -2 -46 -8 0 -5 4 -8 9 -4 5 3 12 2
15 -3 2 -4 -6 -8 -19 -8 -13 0 -22 5 -19 11 3 5 -3 0 -12 -12 -13 -19 -20 -21
-36 -12 -12 7 -18 7 -14 1 3 -5 -1 -13 -10 -16 -8 -3 -13 -2 -10 2 3 5 -2 9
-10 9 -9 0 -13 -6 -10 -14 3 -8 1 -11 -5 -8 -5 4 -17 1 -26 -7 -14 -11 -16
-11 -9 0 7 11 4 12 -11 3 -11 -6 -24 -7 -28 -3 -5 4 -5 1 0 -7 6 -11 2 -13
-19 -9 -16 3 -26 1 -26 -7 0 -7 -10 -11 -25 -10 -15 2 -23 -1 -19 -7 5 -7 -4
-9 -24 -6 -19 3 -28 0 -26 -7 3 -6 -5 -11 -16 -12 -12 -1 -18 2 -14 9 4 7 2 8
-5 4 -6 -4 -8 -12 -5 -18 5 -7 2 -9 -8 -5 -9 3 -26 -2 -39 -10 -17 -13 -20
-13 -14 -2 5 8 -1 5 -13 -5 -12 -11 -22 -15 -22 -10 0 5 -5 2 -10 -6 -6 -10
-10 -11 -10 -2 0 6 -5 12 -11 12 -5 0 -7 -4 -4 -10 3 -5 1 -10 -5 -10 -6 0 -8
-5 -4 -12 4 -7 3 -8 -5 -4 -6 4 -9 12 -6 17 11 16 -74 -18 -87 -36 -5 -6 -8
-5 -8 3 0 7 -5 10 -10 7 -6 -4 -8 -10 -5 -15 3 -5 0 -12 -6 -16 -7 -4 -9 -3
-5 4 3 6 2 13 -4 17 -5 3 -10 2 -10 -3 0 -6 -7 -13 -16 -16 -9 -3 -12 -2 -8 5
3 6 -3 5 -15 -3 -12 -7 -21 -17 -21 -23 0 -5 -4 -4 -9 4 -5 7 -14 10 -21 6 -9
-6 -9 -9 0 -15 8 -5 7 -9 -5 -13 -9 -4 -13 -3 -10 2 3 5 1 12 -4 16 -5 3 -14
-3 -20 -12 -9 -16 -12 -16 -21 -3 -7 12 -10 12 -10 1 0 -7 -6 -11 -15 -7 -9 3
-15 0 -15 -9 0 -10 -10 -13 -35 -11 -19 2 -34 1 -33 -3 0 -3 0 -13 -1 -21 -1
-13 -2 -13 -11 0 -7 10 -12 12 -17 4 -5 -6 -16 -10 -25 -8 -10 1 -18 -2 -18
-8 0 -6 -9 -8 -20 -5 -11 3 -18 1 -15 -3 3 -5 1 -11 -5 -15 -5 -3 -10 -1 -10
6 0 7 -7 4 -16 -7 -8 -10 -13 -14 -10 -8 3 6 -1 11 -9 11 -8 0 -13 -5 -12 -11
1 -6 -10 -10 -26 -9 -17 1 -25 -2 -21 -9 4 -6 -1 -8 -13 -4 -12 4 -27 -1 -41
-14 -12 -12 -22 -16 -22 -9 0 8 -4 9 -13 0 -8 -6 -17 -8 -20 -4 -4 3 -7 1 -7
-5 0 -6 -9 -9 -21 -7 -14 3 -19 0 -16 -9 4 -9 -2 -12 -19 -8 -14 2 -24 0 -24
-7 0 -6 -7 -11 -16 -11 -9 0 -13 5 -9 13 4 6 0 3 -9 -7 -8 -10 -13 -23 -9 -29
4 -6 1 -7 -6 -3 -7 5 -10 15 -7 25 5 12 2 11 -9 -3 -8 -11 -15 -16 -15 -12 0
5 -8 -2 -18 -14 -14 -18 -19 -19 -19 -7 0 9 5 13 10 10 6 -3 7 -1 3 5 -4 6
-13 9 -21 6 -8 -4 -12 -10 -9 -15 3 -5 -4 -10 -15 -10 -12 -1 -25 -3 -31 -4
-5 -1 -15 -3 -21 -4 -5 0 -7 -5 -4 -11 3 -5 1 -10 -4 -10 -6 0 -11 6 -12 13 0
6 -4 3 -9 -8 -5 -11 -9 -14 -9 -6 -1 10 -4 11 -14 2 -8 -6 -18 -7 -22 -3 -5 4
-5 -2 -1 -12 5 -14 3 -17 -6 -10 -19 13 -48 11 -57 -4 -5 -8 -12 -14 -17 -14
-5 0 -8 -5 -6 -11 2 -6 -7 -3 -19 8 -12 11 -19 14 -15 8 7 -13 -4 -17 -32 -14
-7 1 -15 -5 -18 -14 -3 -8 -10 -15 -16 -15 -5 0 -6 6 -3 13 4 6 0 4 -8 -6 -11
-13 -17 -15 -23 -6 -5 9 -10 8 -19 -5 -7 -9 -17 -16 -21 -14 -19 5 -54 -14
-47 -25 4 -7 -1 -6 -10 2 -13 10 -17 10 -17 1 0 -7 -7 -10 -15 -6 -10 3 -15
-1 -15 -12 0 -10 -3 -13 -8 -7 -4 6 -15 11 -25 11 -14 2 -15 -1 -7 -12 10 -11
6 -12 -18 -4 -27 7 -30 6 -27 -11 3 -16 1 -17 -16 -9 -18 10 -25 3 -20 -23 1
-5 -3 -5 -9 -2 -6 4 -9 14 -6 24 5 14 4 14 -7 -1 -8 -10 -17 -15 -20 -11 -4 3
-7 2 -7 -3 0 -6 -12 -10 -27 -10 -19 1 -27 -4 -25 -13 3 -12 0 -12 -13 -1 -13
11 -14 10 -9 -5 6 -15 4 -16 -13 -7 -26 14 -60 -7 -48 -29 6 -11 5 -12 -6 -1
-16 15 -33 16 -23 1 4 -8 0 -8 -15 0 -14 8 -21 8 -21 1 0 -5 -3 -9 -7 -8 -9 1
-64 -12 -76 -19 -4 -3 -2 -12 5 -21 10 -14 10 -15 -2 -4 -29 26 -67 13 -61
-21 1 -5 -3 -6 -9 -2 -6 3 -8 11 -5 16 11 16 -7 10 -22 -8 -8 -10 -12 -12 -8
-6 4 9 1 11 -10 7 -13 -5 -13 -9 -3 -23 10 -13 10 -14 -2 -3 -16 14 -50 16
-50 3 0 -4 -10 -8 -22 -7 -17 1 -23 -4 -21 -19 1 -20 1 -20 -13 -1 -12 17 -18
15 -16 -5 1 -3 -12 -3 -29 -1 -27 4 -35 -4 -30 -31 1 -5 -3 -6 -9 -2 -6 3 -7
11 -4 17 4 6 0 6 -13 -1 -11 -6 -23 -7 -27 -4 -3 4 -16 -3 -27 -16 -17 -19
-23 -20 -37 -9 -12 10 -14 10 -8 1 4 -8 2 -13 -4 -13 -6 0 -9 -4 -6 -8 3 -5
-1 -9 -9 -9 -8 0 -12 4 -9 9 3 4 1 8 -4 8 -6 0 -12 -6 -15 -13 -3 -9 -17 -12
-39 -10 -31 4 -32 3 -13 -12 18 -15 18 -15 -12 -9 -21 4 -39 1 -53 -9 -12 -8
-30 -13 -41 -10 -10 3 -19 1 -19 -5 0 -6 -9 -9 -19 -7 -10 2 -28 -5 -40 -16
-14 -13 -21 -15 -21 -7 0 9 -3 9 -10 -2 -11 -18 -30 -20 -48 -7 -9 7 -11 6 -7
-5 4 -9 -1 -18 -10 -22 -10 -4 -14 -2 -9 5 4 7 1 10 -7 7 -8 -3 -14 -10 -14
-16 0 -5 -4 -14 -8 -19 -5 -4 -7 -2 -5 6 2 7 -5 15 -15 16 -9 2 -15 -1 -11 -6
5 -8 -9 -13 -29 -10 -4 1 -21 -6 -38 -14 -16 -9 -35 -13 -41 -9 -8 5 -9 1 -4
-11 5 -14 4 -16 -7 -7 -10 9 -19 8 -35 -4 -12 -8 -22 -12 -22 -7 0 4 -5 1 -10
-7 -9 -13 -10 -13 -10 0 -1 11 -4 10 -16 -5 -16 -22 -35 -26 -46 -10 -5 6 -8
5 -8 -3 0 -8 -5 -10 -12 -6 -7 5 -9 2 -6 -7 4 -10 -1 -15 -15 -17 -17 -1 -19
1 -7 8 9 6 10 10 3 10 -6 0 -15 -5 -18 -10 -4 -6 -11 -8 -16 -5 -5 4 -9 1 -9
-5 0 -6 -4 -9 -9 -5 -5 3 -12 -3 -14 -12 -4 -15 -5 -15 -6 2 -1 17 -3 18 -11
5 -7 -11 -10 -11 -10 -2 0 7 -4 10 -10 7 -5 -3 -10 -2 -10 3 0 10 -58 36 -72
33 -5 0 -8 3 -8 7 0 5 -19 17 -42 27 -24 11 -55 27 -70 37 -14 10 -33 18 -42
18 -9 0 -16 3 -16 8 0 4 -42 27 -93 52 -50 25 -93 48 -95 53 -2 4 -13 7 -23 7
-11 0 -17 5 -14 10 3 6 0 10 -7 10 -17 0 -151 70 -159 83 -4 5 -11 7 -17 3 -6
-3 -13 -2 -17 4 -3 5 -23 17 -43 27 -20 9 -40 21 -43 26 -3 5 -9 8 -13 8 -9
-1 -40 12 -46 18 -12 14 -68 40 -74 34 -3 -3 -6 -1 -6 5 0 7 -7 12 -15 12 -8
0 -15 5 -15 10 0 6 -7 10 -15 10 -15 0 -54 19 -65 31 -3 3 -20 11 -37 18 -18
8 -33 17 -33 22 0 5 -3 9 -7 8 -17 -2 -53 14 -53 24 0 6 -3 7 -7 4 -3 -4 -15
0 -25 10 -10 9 -18 13 -18 9 0 -4 -12 1 -27 11 -16 11 -59 34 -98 53 -38 19
-72 37 -75 40 -9 11 -105 55 -112 52 -5 -1 -8 2 -8 8 0 5 -7 10 -15 10 -8 0
-15 5 -15 11 0 5 -4 8 -9 5 -5 -3 -14 1 -21 9 -7 8 -18 15 -26 15 -7 0 -30 11
-50 25 -20 14 -40 22 -45 19 -5 -3 -9 0 -9 6 0 6 -4 9 -9 6 -5 -3 -12 1 -15 9
-3 8 -9 14 -13 13 -12 -3 -122 59 -134 75 -3 5 -8 8 -10 6 -6 -3 -93 43 -100
53 -3 5 -13 10 -22 12 -21 3 -90 39 -99 51 -4 6 -8 6 -8 1 0 -5 -8 -3 -17 5
-29 23 -62 39 -78 39 -9 0 -14 4 -11 9 3 4 -13 13 -34 20 -22 6 -40 16 -40 21
0 6 -9 10 -19 10 -11 0 -21 3 -23 8 -1 4 -30 21 -63 38 -132 67 -190 99 -197
109 -4 5 -8 7 -8 3 0 -4 -19 3 -42 16 -24 13 -79 42 -122 65 -44 23 -85 46
-93 52 -7 7 -13 8 -13 4 0 -4 -6 -3 -12 3 -7 6 -67 38 -133 72 -66 35 -142 75
-170 90 -141 78 -305 160 -318 160 -8 0 -20 -7 -27 -15z m7315 -615 c5 -8 11
-7 21 1 23 19 16 4 -8 -17 -12 -10 -18 -14 -15 -7 4 6 0 16 -10 22 -10 6 -13
11 -6 11 6 0 15 -5 18 -10z m-1714 -557 c13 -16 12 -17 -3 -4 -17 13 -22 21
-14 21 2 0 10 -8 17 -17z m-591 -197 c0 -3 -4 -8 -10 -11 -5 -3 -10 -1 -10 4
0 6 5 11 10 11 6 0 10 -2 10 -4z m1777 -58 c-3 -8 -6 -5 -6 6 -1 11 2 17 5 13
3 -3 4 -12 1 -19z m-40 -61 c0 -8 -6 -14 -14 -14 -9 0 -10 4 -2 14 6 7 12 13
14 13 1 0 2 -6 2 -13z m-13357 -133 c0 -8 -19 -13 -24 -6 -3 5 1 9 9 9 8 0 15
-2 15 -3z m10754 -40 c3 -8 2 -12 -4 -9 -6 3 -10 10 -10 16 0 14 7 11 14 -7z
m-369 -714 c-3 -5 -12 -10 -18 -10 -7 0 -6 4 3 10 19 12 23 12 15 0z m335
-174 c0 -3 -4 -8 -10 -11 -5 -3 -10 -1 -10 4 0 6 5 11 10 11 6 0 10 -2 10 -4z
m191 -113 c13 -17 13 -17 -6 -3 -11 8 -22 16 -24 17 -2 2 0 3 6 3 6 0 17 -8
24 -17z m-9926 -433 c3 -6 -1 -7 -9 -4 -18 7 -21 14 -7 14 6 0 13 -4 16 -10z
m422 -46 c-3 -3 -12 -4 -19 -1 -8 3 -5 6 6 6 11 1 17 -2 13 -5z m-267 -133 c0
-5 -7 -12 -16 -15 -14 -5 -15 -4 -4 9 14 17 20 19 20 6z"/>
<path d="M11785 10920 c-3 -6 1 -7 9 -4 18 7 21 14 7 14 -6 0 -13 -4 -16 -10z"/>
<path d="M2545 9470 c-3 -5 -1 -10 4 -10 6 0 11 5 11 10 0 6 -2 10 -4 10 -3 0
-8 -4 -11 -10z"/>
</g>
</svg>
